<?xml version="1.0" encoding="UTF-8" standalone="no"?><svg id="visual" viewBox="0 0 900 675" width="900" height="675" xmlns="http://www.w3.org/2000/svg" xmlns:xlink="http://www.w3.org/1999/xlink" version="1.1"><rect x="0" y="0" width="900" height="675" fill="#001220"></rect><path d="M0 293L75 293L75 276L150 276L150 278L225 278L225 161L300 161L300 152L375 152L375 313L450 313L450 317L525 317L525 239L600 239L600 169L675 169L675 219L750 219L750 233L825 233L825 241L900 241L900 176L900 676L900 676L825 676L825 676L750 676L750 676L675 676L675 676L600 676L600 676L525 676L525 676L450 676L450 676L375 676L375 676L300 676L300 676L225 676L225 676L150 676L150 676L75 676L75 676L0 676Z" fill="#001220"></path><path d="M0 277L75 277L75 234L150 234L150 227L225 227L225 281L300 281L300 220L375 220L375 263L450 263L450 306L525 306L525 365L600 365L600 259L675 259L675 286L750 286L750 366L825 366L825 238L900 238L900 282L900 676L900 676L825 676L825 676L750 676L750 676L675 676L675 676L600 676L600 676L525 676L525 676L450 676L450 676L375 676L375 676L300 676L300 676L225 676L225 676L150 676L150 676L75 676L75 676L0 676Z" fill="#273340"></path><path d="M0 318L75 318L75 283L150 283L150 312L225 312L225 339L300 339L300 353L375 353L375 415L450 415L450 299L525 299L525 311L600 311L600 294L675 294L675 300L750 300L750 355L825 355L825 373L900 373L900 286L900 676L900 676L825 676L825 676L750 676L750 676L675 676L675 676L600 676L600 676L525 676L525 676L450 676L450 676L375 676L375 676L300 676L300 676L225 676L225 676L150 676L150 676L75 676L75 676L0 676Z" fill="#4e5762"></path><path d="M0 457L75 457L75 359L150 359L150 454L225 454L225 368L300 368L300 431L375 431L375 402L450 402L450 389L525 389L525 460L600 460L600 404L675 404L675 382L750 382L750 423L825 423L825 387L900 387L900 424L900 676L900 676L825 676L825 676L750 676L750 676L675 676L675 676L600 676L600 676L525 676L525 676L450 676L450 676L375 676L375 676L300 676L300 676L225 676L225 676L150 676L150 676L75 676L75 676L0 676Z" fill="#777e87"></path><path d="M0 456L75 456L75 491L150 491L150 487L225 487L225 429L300 429L300 470L375 470L375 494L450 494L450 437L525 437L525 516L600 516L600 429L675 429L675 506L750 506L750 515L825 515L825 446L900 446L900 434L900 676L900 676L825 676L825 676L750 676L750 676L675 676L675 676L600 676L600 676L525 676L525 676L450 676L450 676L375 676L375 676L300 676L300 676L225 676L225 676L150 676L150 676L75 676L75 676L0 676Z" fill="#a2a7ad"></path><path d="M0 569L75 569L75 523L150 523L150 553L225 553L225 492L300 492L300 526L375 526L375 567L450 567L450 498L525 498L525 504L600 504L600 524L675 524L675 552L750 552L750 549L825 549L825 503L900 503L900 528L900 676L900 676L825 676L825 676L750 676L750 676L675 676L675 676L600 676L600 676L525 676L525 676L450 676L450 676L375 676L375 676L300 676L300 676L225 676L225 676L150 676L150 676L75 676L75 676L0 676Z" fill="#d0d2d5"></path><path d="M0 574L75 574L75 568L150 568L150 579L225 579L225 593L300 593L300 603L375 603L375 559L450 559L450 602L525 602L525 567L600 567L600 601L675 601L675 609L750 609L750 593L825 593L825 602L900 602L900 588L900 676L900 676L825 676L825 676L750 676L750 676L675 676L675 676L600 676L600 676L525 676L525 676L450 676L450 676L375 676L375 676L300 676L300 676L225 676L225 676L150 676L150 676L75 676L75 676L0 676Z" fill="#ffffff"></path></svg>