<?xml version="1.0" standalone="no"?><svg xmlns="http://www.w3.org/2000/svg" viewBox="0 0 1440 320"><path fill="#0099ff" fill-opacity="1" d="M0,96L15,90.7C30,85,60,75,90,85.3C120,96,150,128,180,160C210,192,240,224,270,208C300,192,330,128,360,133.3C390,139,420,213,450,234.7C480,256,510,224,540,218.7C570,213,600,235,630,229.3C660,224,690,192,720,160C750,128,780,96,810,74.7C840,53,870,43,900,37.3C930,32,960,32,990,74.7C1020,117,1050,203,1080,197.3C1110,192,1140,96,1170,74.7C1200,53,1230,107,1260,117.3C1290,128,1320,96,1350,90.7C1380,85,1410,107,1425,117.3L1440,128L1440,320L1425,320C1410,320,1380,320,1350,320C1320,320,1290,320,1260,320C1230,320,1200,320,1170,320C1140,320,1110,320,1080,320C1050,320,1020,320,990,320C960,320,930,320,900,320C870,320,840,320,810,320C780,320,750,320,720,320C690,320,660,320,630,320C600,320,570,320,540,320C510,320,480,320,450,320C420,320,390,320,360,320C330,320,300,320,270,320C240,320,210,320,180,320C150,320,120,320,90,320C60,320,30,320,15,320L0,320Z"></path></svg>