<?xml version="1.0" encoding="UTF-8" standalone="no"?><svg xmlns="http://www.w3.org/2000/svg" xmlns:xlink="http://www.w3.org/1999/xlink" id="visual" version="1.1" viewBox="0 378.64 900 222.36"><path d="M0 415L21.5 410.7C43 406.3 86 397.7 128.8 393C171.7 388.3 214.3 387.7 257.2 391.3C300 395 343 403 385.8 406.5C428.7 410 471.3 409 514.2 407.7C557 406.3 600 404.7 642.8 397C685.7 389.3 728.3 375.7 771.2 379.2C814 382.7 857 403.3 878.5 413.7L900 424L900 601L878.5 601C857 601 814 601 771.2 601C728.3 601 685.7 601 642.8 601C600 601 557 601 514.2 601C471.3 601 428.7 601 385.8 601C343 601 300 601 257.2 601C214.3 601 171.7 601 128.8 601C86 601 43 601 21.5 601L0 601Z" fill="#69cefa"/><path d="M0 419L21.5 418C43 417 86 415 128.8 419C171.7 423 214.3 433 257.2 431.3C300 429.7 343 416.3 385.8 412.7C428.7 409 471.3 415 514.2 414C557 413 600 405 642.8 406.2C685.7 407.3 728.3 417.7 771.2 418C814 418.3 857 408.7 878.5 403.8L900 399L900 601L878.5 601C857 601 814 601 771.2 601C728.3 601 685.7 601 642.8 601C600 601 557 601 514.2 601C471.3 601 428.7 601 385.8 601C343 601 300 601 257.2 601C214.3 601 171.7 601 128.8 601C86 601 43 601 21.5 601L0 601Z" fill="#4f99bf"/><path d="M0 486L21.5 480.8C43 475.7 86 465.3 128.8 460.5C171.7 455.7 214.3 456.3 257.2 460.8C300 465.3 343 473.7 385.8 481.3C428.7 489 471.3 496 514.2 494.2C557 492.3 600 481.7 642.8 474.7C685.7 467.7 728.3 464.3 771.2 468.2C814 472 857 483 878.5 488.5L900 494L900 601L878.5 601C857 601 814 601 771.2 601C728.3 601 685.7 601 642.8 601C600 601 557 601 514.2 601C471.3 601 428.7 601 385.8 601C343 601 300 601 257.2 601C214.3 601 171.7 601 128.8 601C86 601 43 601 21.5 601L0 601Z" fill="#356886"/><path d="M0 529L21.5 530.5C43 532 86 535 128.8 536.3C171.7 537.7 214.3 537.3 257.2 529.7C300 522 343 507 385.8 500C428.7 493 471.3 494 514.2 494.8C557 495.7 600 496.3 642.8 504.2C685.7 512 728.3 527 771.2 531.8C814 536.7 857 531.3 878.5 528.7L900 526L900 601L878.5 601C857 601 814 601 771.2 601C728.3 601 685.7 601 642.8 601C600 601 557 601 514.2 601C471.3 601 428.7 601 385.8 601C343 601 300 601 257.2 601C214.3 601 171.7 601 128.8 601C86 601 43 601 21.5 601L0 601Z" fill="#1b3b50"/><path d="M0 552L21.5 550.2C43 548.3 86 544.7 128.8 544.3C171.7 544 214.3 547 257.2 551.3C300 555.7 343 561.3 385.8 562.5C428.7 563.7 471.3 560.3 514.2 559.3C557 558.3 600 559.7 642.8 561.7C685.7 563.7 728.3 566.3 771.2 560.3C814 554.3 857 539.7 878.5 532.3L900 525L900 601L878.5 601C857 601 814 601 771.2 601C728.3 601 685.7 601 642.8 601C600 601 557 601 514.2 601C471.3 601 428.7 601 385.8 601C343 601 300 601 257.2 601C214.3 601 171.7 601 128.8 601C86 601 43 601 21.5 601L0 601Z" fill="#001220"/></svg>